<svg width="5" height="16" viewBox="0 0 5 16" fill="none" xmlns="http://www.w3.org/2000/svg">
<path d="M2.71429 4.57143C2.26221 4.57143 1.82029 4.43737 1.44441 4.18622C1.06853 3.93506 0.775561 3.57808 0.602561 3.16042C0.429561 2.74276 0.384296 2.28318 0.472491 1.83979C0.560686 1.39641 0.778379 0.989134 1.09804 0.669471C1.41771 0.349808 1.82498 0.132115 2.26837 0.0439203C2.71175 -0.0442745 3.17133 0.000990281 3.58899 0.173991C4.00665 0.346991 4.36363 0.639957 4.61479 1.01584C4.86594 1.39172 5 1.83364 5 2.28572C5 2.89192 4.75918 3.4733 4.33053 3.90196C3.90188 4.33061 3.32049 4.57143 2.71429 4.57143ZM5 8C5 7.54793 4.86594 7.10601 4.61479 6.73013C4.36363 6.35424 4.00665 6.06128 3.58899 5.88828C3.17133 5.71528 2.71175 5.67001 2.26836 5.75821C1.82498 5.8464 1.4177 6.06409 1.09804 6.38376C0.778379 6.70342 0.560685 7.11069 0.47249 7.55408C0.384296 7.99746 0.42956 8.45705 0.602561 8.87471C0.775561 9.29236 1.06853 9.64934 1.44441 9.9005C1.82029 10.1517 2.26221 10.2857 2.71429 10.2857C3.32049 10.2857 3.90187 10.0449 4.33053 9.61624C4.75918 9.18759 5 8.60621 5 8ZM5 13.7143C5 13.2622 4.86594 12.8203 4.61479 12.4444C4.36363 12.0685 4.00665 11.7756 3.58899 11.6026C3.17133 11.4296 2.71175 11.3843 2.26836 11.4725C1.82498 11.5607 1.4177 11.7784 1.09804 12.098C0.778379 12.4177 0.560685 12.825 0.47249 13.2684C0.384295 13.7117 0.42956 14.1713 0.60256 14.589C0.775561 15.0066 1.06853 15.3636 1.44441 15.6148C1.82029 15.8659 2.26221 16 2.71429 16C3.32049 16 3.90187 15.7592 4.33053 15.3305C4.75918 14.9019 5 14.3205 5 13.7143Z" fill="#949494"/>
</svg>
