<svg width="16" height="16" viewBox="0 0 16 16" fill="none" xmlns="http://www.w3.org/2000/svg">
<path fill-rule="evenodd" clip-rule="evenodd" d="M15.2986 1.84314C15.2986 1.84314 14.2351 2.93599 14.2351 4.28015C14.2351 4.67897 14.5174 5.38354 14.8562 6.22907C15.5321 7.91558 16.4326 10.1629 15.7657 11.6635C15.1759 12.9902 13.9784 13.3315 12.4972 13.7537C11.8607 13.9351 11.1718 14.1315 10.4563 14.4273C8.39977 15.2776 7.99995 16 7.99995 16C7.99995 16 7.60012 15.2776 5.54379 14.4272C4.82823 14.1313 4.13934 13.9349 3.50284 13.7535C2.02164 13.3314 0.824144 12.9901 0.234387 11.6633C-0.432674 10.1627 0.467888 7.91541 1.14371 6.22895C1.48252 5.38348 1.76484 4.67896 1.76484 4.28015C1.76484 2.93617 0.701246 1.84314 0.701246 1.84314L2.89856 0C2.89856 0 4.18329 1.02405 5.65709 1.09979C6.87005 1.16202 7.99995 0.228863 7.99995 0.228863C7.99995 0.228863 9.12984 1.16202 10.343 1.09979C11.8166 1.02405 13.1015 0 13.1015 0L15.2986 1.84314ZM4.38508 11.3778V4.74074H6.42872L7.973 9.30487H7.9915L9.45256 4.74074H11.4962V11.3778H10.1369V6.67422H10.1184L8.5001 11.3778H7.38118L5.76292 6.7207H5.74443V11.3778H4.38508Z" fill="#F8FF00"/>
</svg>
